# xmcd
#
# Track frame offsets:
#	150
#	17935
#	34927
#	53552
#	68300
#	90930
#	108952
#	125500
#	143132
#	162535
#	182097
#	195040
#	216165
#
# Disc length: 3082 seconds
#
# Revision: 3
# Processed by: cddbd v1.5.2PL0 Copyright (c) Steve Scherf et al.
# Submitted via: EasyCDDAExtractor 15.3.0.1
#
DISCID=a50c080d
DTITLE=Mijares - El Privilegio De Amar
DYEAR=1998
DGENRE=Latin
TTITLE0=El Privilegio De Amar (Con La Participacion Especial De Lucero)
TTITLE1=Estrella Mia
TTITLE2=Si Ahora Te Me Vas
TTITLE3=Yo Te Amare
TTITLE4=Te Extraño
TTITLE5=Puedes Llamar
TTITLE6=Vamos Perdiendole El Miedo
TTITLE7=Si Me Miras
TTITLE8=Me Vendes Y Me Recompras
TTITLE9=Por Amor
TTITLE10=Si Tu Te Vas
TTITLE11=La Soledad
TTITLE12=Mientes
EXTD=
EXTT0=
EXTT1=
EXTT2=
EXTT3=
EXTT4=
EXTT5=
EXTT6=
EXTT7=
EXTT8=
EXTT9=
EXTT10=
EXTT11=
EXTT12=
PLAYORDER=
